<svg width="18" height="18" viewBox="0 0 24 24" fill="none" xmlns="http://www.w3.org/2000/svg">
  <g id="car">
    <path id="car-body" d="M20 8H19L17 4C16.6132 3.18318 15.8542 2.60347 14.9542 2.3922C14.0542 2.18092 13.0924 2.35355 12.3536 2.85355L12 3.15L11.6464 2.85355C10.9076 2.35355 9.94584 2.18092 9.04584 2.3922C8.14585 2.60347 7.38684 3.18318 7 4L5 8H4C2.9 8 2 8.9 2 10V17C2 17.55 2.45 18 3 18H4C4.55 18 5 17.55 5 17V16H19V17C19 17.55 19.45 18 20 18H21C21.55 18 22 17.55 22 17V10C22 8.9 21.1 8 20 8ZM7.12 4.5C7.37 3.86 8 3.5 8.66 3.5H15.34C16 3.5 16.63 3.86 16.88 4.5L18.29 8H5.71L7.12 4.5ZM20 15H4V10H20V15ZM6.5 16.5C5.67 16.5 5 15.83 5 15C5 14.17 5.67 13.5 6.5 13.5C7.33 13.5 8 14.17 8 15C8 15.83 7.33 16.5 6.5 16.5ZM17.5 16.5C16.67 16.5 16 15.83 16 15C16 14.17 16.67 13.5 17.5 13.5C18.33 13.5 19 14.17 19 15C19 15.83 18.33 16.5 17.5 16.5Z" fill="#000000"/>
  </g>
</svg>
