<!-- flaticon-car-rental.svg -->
<svg xmlns="http://www.w3.org/2000/svg" viewBox="0 0 24 24">
  <path d="M12 2C6.48 2 2 6.48 2 12c0 2.03.66 3.9 1.78 5.41L1 21l4.59-1.22L12 22l6.41-2.22L23 21l-1.78-3.59C21.34 15.9 22 13.03 22 12c0-5.52-4.48-10-10-10zm6.24 7.69l-1.5-.38V5.5c0-.28-.22-.5-.5-.5H15V4h-2v.5H9V4H7v.62l-1.5.38C4.71 5.09 4 6.09 4 7.25V11H3v2h1v6h4v-1h8v1h4v-6h1v-2h-1V7.25c0-1.16-.71-2.16-1.76-2.56zM14 5.5h-4V6h4v-.5zm5 13h-3v1.18l1 .33 1-.33V18zm1-4h-2v2H6v-2H4v-1h16v1zm-7-7c2.21 0 4 1.79 4 4s-1.79 4-4 4-4-1.79-4-4 1.79-4 4-4z"/>
</svg>
