<svg width="64px" height="64px" viewBox="0 0 24 24" fill="none" xmlns="http://www.w3.org/2000/svg">
  <path d="M16 7.75V6a4 4 0 00-4-4H5A4 4 0 001 6v12a4 4 0 004 4h7a4 4 0 004-4v-2.75h2v.828c0 .265.105.52.293.707l2.12 2.122a1 1 0 001.415 0l.707-.707a1 1 0 000-1.415L21 14.828V10a3 3 0 00-3-3h-2zM7.5 3.5h4a.5.5 0 010 1h-4a.5.5 0 010-1zM14 18a2 2 0 01-2 2H5a2 2 0 01-2-2V6a2 2 0 012-2h.5v1.25a.75.75 0 00.75.75h5.5a.75.75 0 00.75-.75V4H14a2 2 0 012 2v12zm2-7.25h1a1 1 0 011 1V14h-2v-3.25z" fill="#181A20"/>
</svg>
