<?xml version="1.0" encoding="UTF-8"?>
<!DOCTYPE svg PUBLIC "-//W3C//DTD SVG 1.1//EN" "http://www.w3.org/Graphics/SVG/1.1/DTD/svg11.dtd">
<svg xmlns="http://www.w3.org/2000/svg" version="1.1" width="225px" height="225px" style="shape-rendering:geometricPrecision; text-rendering:geometricPrecision; image-rendering:optimizeQuality; fill-rule:evenodd; clip-rule:evenodd" xmlns:xlink="http://www.w3.org/1999/xlink">
<g><path style="opacity:1" fill="#fcfcfc" d="M -0.5,-0.5 C 34.8333,-0.5 70.1667,-0.5 105.5,-0.5C 56.1922,4.95852 22.6922,30.9585 5,77.5C 2.48679,86.8542 0.653453,96.1876 -0.5,105.5C -0.5,70.1667 -0.5,34.8333 -0.5,-0.5 Z"/></g>
<g><path style="opacity:1" fill="#030303" d="M 105.5,-0.5 C 109.833,-0.5 114.167,-0.5 118.5,-0.5C 170.641,5.34871 204.808,33.3487 221,83.5C 222.002,89.6717 223.168,95.6717 224.5,101.5C 224.5,106.833 224.5,112.167 224.5,117.5C 218.981,170.688 190.648,205.188 139.5,221C 132.07,222.499 124.737,223.666 117.5,224.5C 112.167,224.5 106.833,224.5 101.5,224.5C 52.1636,217.34 19.6636,190.007 4,142.5C 2.59265,135.678 1.09265,129.011 -0.5,122.5C -0.5,116.833 -0.5,111.167 -0.5,105.5C 0.653453,96.1876 2.48679,86.8542 5,77.5C 22.6922,30.9585 56.1922,4.95852 105.5,-0.5 Z"/></g>
<g><path style="opacity:1" fill="#fcfcfc" d="M 118.5,-0.5 C 153.833,-0.5 189.167,-0.5 224.5,-0.5C 224.5,33.5 224.5,67.5 224.5,101.5C 223.168,95.6717 222.002,89.6717 221,83.5C 204.808,33.3487 170.641,5.34871 118.5,-0.5 Z"/></g>
<g><path style="opacity:1" fill="#fcfcfc" d="M 104.5,15.5 C 156.683,15.8694 190.516,40.8694 206,90.5C 213.027,131.092 200.527,164.259 168.5,190C 133.619,213.069 97.9519,214.402 61.5,194C 20.4772,164.787 7.31049,125.953 22,77.5C 37.9723,41.3457 65.4723,20.679 104.5,15.5 Z"/></g>
<g><path style="opacity:1" fill="#010101" d="M 77.5,83.5 C 76.5067,92.3178 76.1734,101.318 76.5,110.5C 86.015,110.827 95.3483,110.494 104.5,109.5C 104.666,100.827 104.5,92.1603 104,83.5C 97.6586,76.5215 98.1586,70.0215 105.5,64C 118.803,60.634 124.637,65.8006 123,79.5C 122.385,81.1161 121.385,82.4495 120,83.5C 119.5,92.1603 119.334,100.827 119.5,109.5C 128.652,110.494 137.985,110.827 147.5,110.5C 147.827,101.318 147.493,92.3178 146.5,83.5C 141.224,77.3712 141.224,71.2045 146.5,65C 154.951,60.3566 161.451,62.1899 166,70.5C 167.273,75.6781 165.94,80.0114 162,83.5C 161.963,96.5947 161.296,109.595 160,122.5C 159.25,123.126 158.416,123.626 157.5,124C 144.838,124.5 132.171,124.667 119.5,124.5C 119.334,133.173 119.5,141.84 120,150.5C 121.385,151.551 122.385,152.884 123,154.5C 124.689,168.144 118.856,173.311 105.5,170C 100.789,165.86 99.2886,160.694 101,154.5C 101.615,152.884 102.615,151.551 104,150.5C 104.5,142.173 104.666,133.84 104.5,125.5C 95.3483,124.506 86.015,124.173 76.5,124.5C 76.1736,133.349 76.507,142.016 77.5,150.5C 81.7134,154.808 82.5467,159.808 80,165.5C 72.9656,173.413 65.9656,173.413 59,165.5C 56.4444,159.882 57.2777,154.882 61.5,150.5C 62.6664,128.174 62.8331,105.841 62,83.5C 56.9388,78.3988 56.2721,72.7321 60,66.5C 65.4507,61.8403 71.284,61.3403 77.5,65C 82.7764,71.2045 82.7764,77.3712 77.5,83.5 Z"/></g>
<g><path style="opacity:1" fill="#c1c1c1" d="M 77.5,83.5 C 77.5,92.1667 77.5,100.833 77.5,109.5C 86.5,109.5 95.5,109.5 104.5,109.5C 95.3483,110.494 86.015,110.827 76.5,110.5C 76.1734,101.318 76.5067,92.3178 77.5,83.5 Z"/></g>
<g><path style="opacity:1" fill="#c1c1c1" d="M 146.5,83.5 C 147.493,92.3178 147.827,101.318 147.5,110.5C 137.985,110.827 128.652,110.494 119.5,109.5C 128.5,109.5 137.5,109.5 146.5,109.5C 146.5,100.833 146.5,92.1667 146.5,83.5 Z"/></g>
<g><path style="opacity:1" fill="#fcfcfc" d="M -0.5,122.5 C 1.09265,129.011 2.59265,135.678 4,142.5C 19.6636,190.007 52.1636,217.34 101.5,224.5C 67.5,224.5 33.5,224.5 -0.5,224.5C -0.5,190.5 -0.5,156.5 -0.5,122.5 Z"/></g>
<g><path style="opacity:1" fill="#8f8f8f" d="M 104.5,125.5 C 95.5,125.5 86.5,125.5 77.5,125.5C 77.5,133.833 77.5,142.167 77.5,150.5C 76.507,142.016 76.1736,133.349 76.5,124.5C 86.015,124.173 95.3483,124.506 104.5,125.5 Z"/></g>
<g><path style="opacity:1" fill="#fcfcfc" d="M 224.5,117.5 C 224.5,153.167 224.5,188.833 224.5,224.5C 188.833,224.5 153.167,224.5 117.5,224.5C 124.737,223.666 132.07,222.499 139.5,221C 190.648,205.188 218.981,170.688 224.5,117.5 Z"/></g>
</svg>
